<?xml version="1.0" encoding="utf-8"?>
<!-- Generator: Adobe Illustrator 16.0.0, SVG Export Plug-In . SVG Version: 6.00 Build 0)  -->
<!DOCTYPE svg PUBLIC "-//W3C//DTD SVG 1.1//EN" "http://www.w3.org/Graphics/SVG/1.1/DTD/svg11.dtd">
<svg version="1.1" id="Layer_1" xmlns="http://www.w3.org/2000/svg" xmlns:xlink="http://www.w3.org/1999/xlink" x="0px" y="0px"
	 width="54px" height="54px" viewBox="3 3 54 54" enable-background="new 3 3 54 54" xml:space="preserve">
<g>
	<g opacity="0.2">
		<path fill="#ED6F09" d="M13.621,13.982C17.786,9.726,23.588,7.076,30,7.076s12.215,2.649,16.379,6.906l2.918-2.841
			C44.391,6.123,37.555,3,30,3c-7.555,0-14.392,3.123-19.297,8.142L13.621,13.982z"/>
		<path fill="#ED6F09" d="M24.344,52.217C14.43,49.691,7.075,40.689,7.075,30c0-2.179,0.312-4.285,0.883-6.284L4.037,22.61
			C3.367,24.96,3,27.438,3,30c0,12.592,8.663,23.195,20.341,26.168L24.344,52.217z"/>
		<path fill="#ED6F09" d="M52.041,23.716c0.57,1.999,0.883,4.105,0.883,6.284c0,10.689-7.354,19.693-17.268,22.217l1.002,3.951
			C48.336,53.195,57,42.592,57,30c0-2.562-0.367-5.04-1.037-7.391L52.041,23.716z"/>
	</g>
	<g opacity="0.7">
		<path fill="#ED6F09" d="M42.879,30c0,6.002-4.133,11.045-9.699,12.467l1.014,3.988C41.543,44.58,47,37.926,47,30
			c0-1.621-0.242-3.186-0.668-4.673l-3.963,1.118C42.693,27.576,42.879,28.766,42.879,30z"/>
		<path fill="#ED6F09" d="M30,13c-4.75,0-9.047,1.965-12.135,5.117l2.949,2.872c2.339-2.384,5.591-3.868,9.186-3.868
			c3.594,0,6.846,1.484,9.186,3.868l2.949-2.872C39.047,14.965,34.75,13,30,13z"/>
		<path fill="#ED6F09" d="M25.807,46.455l1.013-3.988c-5.565-1.422-9.698-6.465-9.698-12.467c0-1.234,0.185-2.424,0.51-3.555
			l-3.962-1.118C13.242,26.814,13,28.379,13,30C13,37.926,18.458,44.58,25.807,46.455z"/>
	</g>
	<g opacity="0.4">
		<path fill="#ED6F09" d="M47.906,30c0,8.348-5.748,15.359-13.49,17.334l1.012,3.988C44.941,48.898,52,40.258,52,30
			c0-2.092-0.301-4.114-0.848-6.033l-3.949,1.114C47.652,26.646,47.906,28.293,47.906,30z"/>
		<path fill="#ED6F09" d="M24.571,51.322l1.012-3.988C17.842,45.359,12.092,38.348,12.092,30c0-1.707,0.255-3.354,0.704-4.919
			l-3.948-1.114C8.3,25.886,8,27.908,8,30C8,40.258,15.058,48.898,24.571,51.322z"/>
		<path fill="#ED6F09" d="M30,8c-6.152,0-11.721,2.543-15.717,6.628l2.933,2.856c3.253-3.321,7.779-5.39,12.784-5.39
			c5.004,0,9.531,2.069,12.783,5.391l2.934-2.857C41.721,10.543,36.152,8,30,8z"/>
	</g>
	<circle fill="#ED6F09" cx="30" cy="30" r="12"/>
</g>
</svg>
